<svg xmlns="http://www.w3.org/2000/svg" xmlns:xlink="http://www.w3.org/1999/xlink" version="1.0" id="Layer_1" x="0px" y="0px" style="enable-background:new 0 0 979 625.6;" xml:space="preserve" viewBox="122.6 208 736.8 209.8">
<style type="text/css">
	.st0{fill:#353535;}
	.st1{fill:#FFC929;}
	.st2{fill:#FFFFFF;}
	.st3{fill:#EF502E;}
	.st4{fill:#CC2525;}
	.st5{fill:none;}
</style>
<path class="st0" d="M369.1,263.2c13.5,0,23.3,4.3,32.4,12.5c1.1,0.9,1.2,2.4,0.4,3.5c-0.1,0.1-0.1,0.2-0.2,0.2l-8.2,8.4  c-0.7,0.9-2.1,1.1-3,0.3c-0.1-0.1-0.2-0.2-0.3-0.3c-5.7-5-13-7.8-20.6-7.9c-17.1,0-29.9,14.3-29.9,31.2s12.9,30.9,30,30.9  c7.5-0.1,14.8-2.8,20.5-7.6c0.9-0.9,2.4-0.9,3.4,0l8.3,8.6c1,1,0.9,2.6-0.1,3.6c0,0,0,0,0,0c-8.7,8.5-20.4,13.1-32.5,13  c-26.6,0.4-48.5-20.9-48.9-47.5c-0.4-26.6,20.9-48.5,47.5-48.9C368.2,263.1,368.7,263.1,369.1,263.2 M471.7,326.2l-13.4-29.5H458  l-13.1,29.5L471.7,326.2z M413.9,354.8l41.6-90.1c0.4-0.9,1.3-1.5,2.3-1.5h1.3c1-0.1,1.9,0.5,2.3,1.5l41.3,90.1  c0.6,1.1,0.2,2.6-0.9,3.2c-0.4,0.2-0.9,0.3-1.3,0.3h-11.6c-2,0-3-0.8-3.9-2.7l-6.6-14.5h-40l-6.6,14.5c-0.6,1.6-2.1,2.7-3.9,2.7  h-11.7c-1.3,0.1-2.4-0.8-2.6-2.1C413.6,355.6,413.7,355.2,413.9,354.8L413.9,354.8z M532.6,265.2c0.1-1.2,1.2-2.1,2.4-2h2.1  c1,0,1.8,0.5,2.3,1.3l29.5,63.2h0.4l29.5-63.2c0.4-0.9,1.3-1.4,2.3-1.3h2.1c1.2-0.1,2.3,0.8,2.4,2l15.8,90c0.4,1.2-0.2,2.5-1.4,3  c-0.3,0.1-0.7,0.2-1,0.1h-12.2c-1.2-0.1-2.2-0.9-2.5-2l-7.9-50.8h-0.4l-23.4,52.6c-0.4,0.9-1.3,1.5-2.3,1.5h-2.4  c-1,0-1.9-0.6-2.3-1.5l-23.7-52.6h-0.4l-7.8,50.8c-0.3,1.1-1.3,1.9-2.4,2h-12.1c-1.4,0.1-2.5-0.9-2.6-2.3c0-0.3,0-0.5,0.1-0.8  L532.6,265.2z M677.2,342.4c6.6,0,12-5.3,12-11.9c0-0.1,0-0.2,0-0.3c0-6.7-6.7-11.7-13.7-11.7H661v23.8H677.2z M675.3,303.9  c6.8,0,11.5-5.4,11.5-12s-4.7-11.4-11.5-11.4H661v23.4H675.3z M643.7,267c0-1.4,1.1-2.5,2.5-2.5h30.7c15.9,0,28.3,10.7,28.3,24.8  c0,10.3-8.4,18.4-14.7,21.3c7.1,2.3,17.4,9.5,17.4,21.8c0,15-12.8,25.9-29.2,25.9h-32.4c-1.4,0-2.5-1.1-2.5-2.5V267z M731.2,267  c0-1.4,1.1-2.5,2.5-2.5H746c1.4,0,2.5,1.2,2.5,2.5v75.1h34.2c1.4,0,2.5,1.1,2.5,2.5v11c0,1.4-1.1,2.5-2.5,2.5h-49  c-1.4,0-2.5-1.1-2.5-2.5L731.2,267z M810.7,313.1l-30.5-44.7c-0.8-1.1-0.5-2.7,0.6-3.4c0.4-0.3,1-0.5,1.5-0.4H796  c0.9,0,1.7,0.5,2.1,1.2l21.4,30.8l21.4-30.8c0.5-0.7,1.3-1.2,2.1-1.2h13.8c1.4-0.1,2.5,1,2.6,2.4c0,0.5-0.1,1.1-0.4,1.5L828.1,313  v42.7c0,1.4-1.2,2.5-2.5,2.5h-12.3c-1.4,0-2.5-1.1-2.5-2.5c0,0,0,0,0,0V313.1z"/>
<g>
	<path class="st1" d="M298,303.4c0,48.4-39.3,87.7-87.7,87.7s-87.7-39.3-87.7-87.7s39.3-87.7,87.7-87.7c0,0,0,0,0,0   C258.8,215.7,298,254.9,298,303.4C298,303.4,298,303.4,298,303.4"/>
</g>
<g>
	<path class="st0" d="M220.5,387.5v16.4c0.1,1.5-0.4,3-1.2,4.3c-1.7,2.6-3.4,5.2-5.1,7.8c-0.3,0.5-0.7,0.9-1.2,1.3   c-0.5,0.3-1,0.5-1.6,0.5h-0.1c-6.7-0.2-13-0.4-19.8-0.7c-0.4,0-1.2-0.1-1.2-1s1-1,1.6-1.3c0,0,14.6-6.4,22-9.5   c0.6-0.2,1.1-0.6,1.4-1.1c0.3-0.6,0.5-1.4,0.4-2.1c0-0.1,0-25,0-31.6c1.5-0.2,3.1-0.5,4.5-0.8C220.5,373.6,220.5,380.8,220.5,387.5   "/>
</g>
<path class="st0" d="M262.7,406.9L262.7,406.9c0,0.1-0.1,0.7-0.5,0.7c-0.2,0-22.4,0.1-33,0.1c-0.6,0-1.1-0.1-1.7-0.1  c-0.4-0.1-0.8-0.3-1-0.7c-0.1-0.3-0.2-0.6-0.3-0.9c-0.1-0.6-0.1-1.2-0.1-1.8c0-0.1,0.1-26.8,0.1-36c1.4-0.4,3-1.1,4.3-1.6  c0,8.4,0,31.7,0,31.7c0,0.2,0,0.4,0.1,0.6c0,0.1,0.1,0.2,0.2,0.3c0.2,0.1,0.5,0.2,0.7,0.2c7.5,1.4,27,5.3,29.3,5.8  c0.3,0,0.5,0.1,0.8,0.2c0.3,0.1,0.5,0.3,0.7,0.5C262.6,406.2,262.7,406.5,262.7,406.9"/>
<path class="st3" d="M254.6,354c-6.2,7.1-14.1,12.6-22.9,15.9c-1.5,0.6-3.1,1.2-4.6,1.6c-2.1,0.6-4.3,1.2-6.5,1.7  c-1.6,0.4-3.3,0.6-4.9,0.8c-16.8,2.4-33.8-1.3-48.1-10.3c-0.7-0.4-1.2-0.8-1.8-1.1c11.6,7.5,26.4,9.4,42.4,4.8  c18.7-5.5,31.9-15.5,37.6-32.6c6.7-19.9-2.9-34.5-15.9-41.6c-10.5-5.8-27.9-4.6-38.6,8.4c-1.2-13.2-10.5-31.2-9.3-44.7  c1.8-20.8,23.5-30.8,41.8-27.3c3.7,0.7,7.2,2.2,10.2,4.5c0.1,0.1,0,0.2,0,0.3c-4.5,3.7-8.1,7.1-9.2,10.1c-1.4,3.8,1.8,6.1,2.5,12.6  c0.5,2.9,0.2,5.9-0.8,8.7c-0.4,1.5,6.8,5.6,14.4,4.3c4.3-0.6,8.2-2.6,11.2-5.7c2.2,6.1,3.9,11.7,5.3,15.8  C267.3,308,272.5,332.9,254.6,354"/>
<path class="st2" d="M220,263.5c-0.1,0.2-0.3,0.3-0.5,0.2c-2.9-0.8-5.8-0.9-8.7-0.3c-3.1,0.6-6.1,2-8.6,4c-0.1,0.1-0.3,0.1-0.4-0.1  c0,0,0,0,0,0c-1.4-2.3-2.2-4.9-2.4-7.6c-0.8-7.1,4-12.4,9.8-12.8c5.4-0.4,10.3,3,11.3,10.5C220.6,258.7,220.7,262.1,220,263.5"/>
<path class="st0" d="M205.4,261.1c2.8-2.5,6.8-3.4,10.4-2.3c-0.1-0.9-0.2-1.7-0.6-2.5c-0.9-2.5-3.6-3.9-6.1-3.2  C205.4,253.9,204.1,258.3,205.4,261.1 M304.2,232.9l-47.4,24.6c-0.6,0.2-1,0.5-1.3,1.1c-0.8,2.2-2,4.1-3.6,5.8  c-3,3.1-6.9,5.1-11.2,5.7c-7.6,1.3-14.8-2.8-14.4-4.3c1-2.8,1.2-5.8,0.8-8.7c-0.7-6.5-3.9-8.9-2.5-12.6c1.1-3,4.5-6.6,9-10.2  c9.9-7.8,20.3-15,31-21.6c11.6-6.9,23.2-7.4,35.3,6.7c2.6,3,4.6,6.5,5.9,10.2C306.3,230.9,305.6,232.4,304.2,232.9"/>
<path class="st4" d="M245.7,334.8c-5.8,17.1-18.9,27.2-37.6,32.6c-25.9,7.5-48.8-2.2-59.7-24.8c0,0,22.4-7.9,39.7-36.8  c10.2-17,30-19,41.6-12.6C242.8,300.3,252.4,314.9,245.7,334.8"/>
<rect x="92" y="187.3" class="st5" width="795" height="251"/>
</svg>