<svg version="1.1" id="Layer_1" xmlns="http://www.w3.org/2000/svg" xmlns:xlink="http://www.w3.org/1999/xlink" x="0px" y="0px"
	 width="100%" viewBox="0 0 120 120" enable-background="new 0 0 120 120" xml:space="preserve">
<path fill="#FEFEFE" opacity="1.000000" stroke="none" 
	d="
M1.000000,72.000000 
	C1.000000,64.979050 1.000000,57.958103 1.358853,50.309700 
	C4.682597,34.015594 12.345853,20.993313 25.597672,12.259026 
	C32.992828,7.384869 41.818802,4.681563 50.000000,1.000000 
	C57.020947,1.000000 64.041893,1.000000 71.690308,1.358856 
	C87.984436,4.682564 101.006691,12.345877 109.740990,25.597675 
	C114.615150,32.992821 117.318443,41.818802 121.000000,50.000000 
	C121.000000,57.020947 121.000000,64.041893 120.641144,71.690308 
	C117.272087,87.955872 109.769386,101.070015 96.409546,109.749123 
	C88.974525,114.579224 80.181183,117.318459 72.000000,121.000000 
	C64.979050,121.000000 57.958103,121.000000 50.309700,120.641144 
	C34.015591,117.317398 20.993309,109.654144 12.259023,96.402321 
	C7.384861,89.007172 4.681561,80.181198 1.000000,72.000000 
M29.267239,52.541359 
	C23.191996,57.646648 22.786560,63.055756 28.289530,68.649185 
	C36.568172,77.063919 44.923851,85.404129 53.328651,93.692993 
	C58.364124,98.659019 63.576942,98.702545 68.567574,93.788162 
	C77.097008,85.389015 85.553497,76.914413 93.936920,68.369766 
	C95.278076,67.002808 96.542839,65.234138 97.039536,63.430008 
	C98.265015,58.978855 96.890656,55.114971 92.893234,52.651127 
	C88.638802,50.028873 84.587257,50.867241 81.113289,54.301109 
	C74.417107,60.920010 67.788979,67.607765 60.844040,74.555687 
	C54.142773,67.747246 47.797600,61.409477 41.584637,54.944645 
	C38.227039,51.450932 34.512970,50.150585 29.267239,52.541359 
M62.255699,45.250576 
	C71.435181,44.184547 73.404282,33.780376 69.171173,28.597696 
	C66.154770,24.904659 60.867207,23.618254 56.553078,25.642313 
	C52.203255,27.683123 49.953762,32.294407 50.875835,37.280209 
	C51.758968,42.055481 55.350727,44.776367 62.255699,45.250576 
z"/>
<path fill="#4C6971" opacity="1.000000" stroke="none" 
	d="
M49.531342,1.000000 
	C41.818802,4.681563 32.992828,7.384869 25.597672,12.259026 
	C12.345853,20.993313 4.682597,34.015594 1.358853,49.841122 
	C1.000000,33.739925 1.000000,17.479853 1.000000,1.000000 
	C17.020226,1.000000 33.041454,1.000000 49.531342,1.000000 
z"/>
<path fill="#4C6971" opacity="1.000000" stroke="none" 
	d="
M121.000000,49.531342 
	C117.318443,41.818802 114.615150,32.992821 109.740990,25.597675 
	C101.006691,12.345877 87.984436,4.682564 72.158882,1.358856 
	C88.260071,1.000000 104.520142,1.000000 121.000000,1.000000 
	C121.000000,17.020226 121.000000,33.041454 121.000000,49.531342 
z"/>
<path fill="#4C6971" opacity="1.000000" stroke="none" 
	d="
M1.000000,72.468658 
	C4.681561,80.181198 7.384861,89.007172 12.259023,96.402321 
	C20.993309,109.654144 34.015591,117.317398 49.841118,120.641144 
	C33.739925,121.000000 17.479853,121.000000 1.000000,121.000000 
	C1.000000,104.979774 1.000000,88.958549 1.000000,72.468658 
z"/>
<path fill="#4C6971" opacity="1.000000" stroke="none" 
	d="
M72.468658,121.000000 
	C80.181183,117.318459 88.974525,114.579224 96.409546,109.749123 
	C109.769386,101.070015 117.272087,87.955872 120.641144,72.158882 
	C121.000000,88.260071 121.000000,104.520149 121.000000,121.000000 
	C104.979774,121.000000 88.958549,121.000000 72.468658,121.000000 
z"/>
<path fill="#2F2F2F" opacity="1.000000" stroke="none" 
	d="
M29.594898,52.347527 
	C34.512970,50.150585 38.227039,51.450932 41.584637,54.944645 
	C47.797600,61.409477 54.142773,67.747246 60.844040,74.555687 
	C67.788979,67.607765 74.417107,60.920010 81.113289,54.301109 
	C84.587257,50.867241 88.638802,50.028873 92.893234,52.651127 
	C96.890656,55.114971 98.265015,58.978855 97.039536,63.430008 
	C96.542839,65.234138 95.278076,67.002808 93.936920,68.369766 
	C85.553497,76.914413 77.097008,85.389015 68.567574,93.788162 
	C63.576942,98.702545 58.364124,98.659019 53.328651,93.692993 
	C44.923851,85.404129 36.568172,77.063919 28.289530,68.649185 
	C22.786560,63.055756 23.191996,57.646648 29.594898,52.347527 
z"/>
<path fill="#FBC91D" opacity="1.000000" stroke="none" 
	d="
M61.839149,45.260170 
	C55.350727,44.776367 51.758968,42.055481 50.875835,37.280209 
	C49.953762,32.294407 52.203255,27.683123 56.553078,25.642313 
	C60.867207,23.618254 66.154770,24.904659 69.171173,28.597696 
	C73.404282,33.780376 71.435181,44.184547 61.839149,45.260170 
z"/>
</svg>