<svg id="visual" viewBox="0 0 900 600" width="900" height="600" xmlns="http://www.w3.org/2000/svg" xmlns:xlink="http://www.w3.org/1999/xlink" version="1.1"><rect x="0" y="0" width="900" height="600" fill="#ffffff"></rect><path d="M0 532L30 520C60 508 120 484 180 483.7C240 483.3 300 506.7 360 523C420 539.3 480 548.7 540 539.5C600 530.3 660 502.7 720 480C780 457.3 840 439.7 870 430.8L900 422L900 601L870 601C840 601 780 601 720 601C660 601 600 601 540 601C480 601 420 601 360 601C300 601 240 601 180 601C120 601 60 601 30 601L0 601Z" fill="#AAAAEF" stroke-linecap="round" stroke-linejoin="miter"></path></svg>