<svg id="visual" viewBox="0 0 960 540" width="960" height="540" xmlns="http://www.w3.org/2000/svg" xmlns:xlink="http://www.w3.org/1999/xlink" version="1.1"><rect x="0" y="0" width="960" height="540" fill="#000000"></rect><path d="M0 155L22.8 166C45.7 177 91.3 199 137 199.3C182.7 199.7 228.3 178.3 274 167.2C319.7 156 365.3 155 411.2 155.3C457 155.7 503 157.3 548.8 159.8C594.7 162.3 640.3 165.7 686 165.8C731.7 166 777.3 163 823 168.5C868.7 174 914.3 188 937.2 195L960 202L960 0L937.2 0C914.3 0 868.7 0 823 0C777.3 0 731.7 0 686 0C640.3 0 594.7 0 548.8 0C503 0 457 0 411.2 0C365.3 0 319.7 0 274 0C228.3 0 182.7 0 137 0C91.3 0 45.7 0 22.8 0L0 0Z" fill="#6161ca"></path><path d="M0 125L22.8 126C45.7 127 91.3 129 137 138C182.7 147 228.3 163 274 166.8C319.7 170.7 365.3 162.3 411.2 156.7C457 151 503 148 548.8 144.3C594.7 140.7 640.3 136.3 686 139.5C731.7 142.7 777.3 153.3 823 158.7C868.7 164 914.3 164 937.2 164L960 164L960 0L937.2 0C914.3 0 868.7 0 823 0C777.3 0 731.7 0 686 0C640.3 0 594.7 0 548.8 0C503 0 457 0 411.2 0C365.3 0 319.7 0 274 0C228.3 0 182.7 0 137 0C91.3 0 45.7 0 22.8 0L0 0Z" fill="#7473d4"></path><path d="M0 83L22.8 84C45.7 85 91.3 87 137 92.7C182.7 98.3 228.3 107.7 274 114.2C319.7 120.7 365.3 124.3 411.2 119.5C457 114.7 503 101.3 548.8 95.7C594.7 90 640.3 92 686 93.2C731.7 94.3 777.3 94.7 823 95.7C868.7 96.7 914.3 98.3 937.2 99.2L960 100L960 0L937.2 0C914.3 0 868.7 0 823 0C777.3 0 731.7 0 686 0C640.3 0 594.7 0 548.8 0C503 0 457 0 411.2 0C365.3 0 319.7 0 274 0C228.3 0 182.7 0 137 0C91.3 0 45.7 0 22.8 0L0 0Z" fill="#8685dd"></path><path d="M0 54L22.8 61.3C45.7 68.7 91.3 83.3 137 86.8C182.7 90.3 228.3 82.7 274 76.7C319.7 70.7 365.3 66.3 411.2 71.3C457 76.3 503 90.7 548.8 95C594.7 99.3 640.3 93.7 686 90.3C731.7 87 777.3 86 823 80.3C868.7 74.7 914.3 64.3 937.2 59.2L960 54L960 0L937.2 0C914.3 0 868.7 0 823 0C777.3 0 731.7 0 686 0C640.3 0 594.7 0 548.8 0C503 0 457 0 411.2 0C365.3 0 319.7 0 274 0C228.3 0 182.7 0 137 0C91.3 0 45.7 0 22.8 0L0 0Z" fill="#9897e6"></path><path d="M0 44L22.8 42.2C45.7 40.3 91.3 36.7 137 39.3C182.7 42 228.3 51 274 49.7C319.7 48.3 365.3 36.7 411.2 36.2C457 35.7 503 46.3 548.8 51.8C594.7 57.3 640.3 57.7 686 56.5C731.7 55.3 777.3 52.7 823 51.3C868.7 50 914.3 50 937.2 50L960 50L960 0L937.2 0C914.3 0 868.7 0 823 0C777.3 0 731.7 0 686 0C640.3 0 594.7 0 548.8 0C503 0 457 0 411.2 0C365.3 0 319.7 0 274 0C228.3 0 182.7 0 137 0C91.3 0 45.7 0 22.8 0L0 0Z" fill="#aaaaef"></path></svg>