<svg id="visual" viewBox="0 0 960 540" width="960" height="540" xmlns="http://www.w3.org/2000/svg" xmlns:xlink="http://www.w3.org/1999/xlink" version="1.1"><path d="M0 141L16 147.3C32 153.7 64 166.3 96 179.8C128 193.3 160 207.7 192 205C224 202.3 256 182.7 288 165.7C320 148.7 352 134.3 384 131.7C416 129 448 138 480 138.8C512 139.7 544 132.3 576 144.8C608 157.3 640 189.7 672 200.5C704 211.3 736 200.7 768 181.8C800 163 832 136 864 126.2C896 116.3 928 123.7 944 127.3L960 131L960 0L944 0C928 0 896 0 864 0C832 0 800 0 768 0C736 0 704 0 672 0C640 0 608 0 576 0C544 0 512 0 480 0C448 0 416 0 384 0C352 0 320 0 288 0C256 0 224 0 192 0C160 0 128 0 96 0C64 0 32 0 16 0L0 0Z" fill="#ffffff"></path><path d="M0 293L16 288.5C32 284 64 275 96 284C128 293 160 320 192 322.7C224 325.3 256 303.7 288 295.5C320 287.3 352 292.7 384 298C416 303.3 448 308.7 480 317.7C512 326.7 544 339.3 576 343.8C608 348.3 640 344.7 672 335.7C704 326.7 736 312.3 768 307.8C800 303.3 832 308.7 864 302.3C896 296 928 278 944 269L960 260L960 129L944 125.3C928 121.7 896 114.3 864 124.2C832 134 800 161 768 179.8C736 198.7 704 209.3 672 198.5C640 187.7 608 155.3 576 142.8C544 130.3 512 137.7 480 136.8C448 136 416 127 384 129.7C352 132.3 320 146.7 288 163.7C256 180.7 224 200.3 192 203C160 205.7 128 191.3 96 177.8C64 164.3 32 151.7 16 145.3L0 139Z" fill="#ebe9fb"></path><path d="M0 395L16 387.8C32 380.7 64 366.3 96 370C128 373.7 160 395.3 192 393.5C224 391.7 256 366.3 288 361.8C320 357.3 352 373.7 384 376.3C416 379 448 368 480 371.5C512 375 544 393 576 400.3C608 407.7 640 404.3 672 399C704 393.7 736 386.3 768 389C800 391.7 832 404.3 864 401.7C896 399 928 381 944 372L960 363L960 258L944 267C928 276 896 294 864 300.3C832 306.7 800 301.3 768 305.8C736 310.3 704 324.7 672 333.7C640 342.7 608 346.3 576 341.8C544 337.3 512 324.7 480 315.7C448 306.7 416 301.3 384 296C352 290.7 320 285.3 288 293.5C256 301.7 224 323.3 192 320.7C160 318 128 291 96 282C64 273 32 282 16 286.5L0 291Z" fill="#d6d4f7"></path><path d="M0 471L16 462C32 453 64 435 96 432.3C128 429.7 160 442.3 192 440.5C224 438.7 256 422.3 288 425C320 427.7 352 449.3 384 455.7C416 462 448 453 480 451.2C512 449.3 544 454.7 576 461C608 467.3 640 474.7 672 467.5C704 460.3 736 438.7 768 437.7C800 436.7 832 456.3 864 455.3C896 454.3 928 432.7 944 421.8L960 411L960 361L944 370C928 379 896 397 864 399.7C832 402.3 800 389.7 768 387C736 384.3 704 391.7 672 397C640 402.3 608 405.7 576 398.3C544 391 512 373 480 369.5C448 366 416 377 384 374.3C352 371.7 320 355.3 288 359.8C256 364.3 224 389.7 192 391.5C160 393.3 128 371.7 96 368C64 364.3 32 378.7 16 385.8L0 393Z" fill="#c0bff3"></path><path d="M0 541L16 541C32 541 64 541 96 541C128 541 160 541 192 541C224 541 256 541 288 541C320 541 352 541 384 541C416 541 448 541 480 541C512 541 544 541 576 541C608 541 640 541 672 541C704 541 736 541 768 541C800 541 832 541 864 541C896 541 928 541 944 541L960 541L960 409L944 419.8C928 430.7 896 452.3 864 453.3C832 454.3 800 434.7 768 435.7C736 436.7 704 458.3 672 465.5C640 472.7 608 465.3 576 459C544 452.7 512 447.3 480 449.2C448 451 416 460 384 453.7C352 447.3 320 425.7 288 423C256 420.3 224 436.7 192 438.5C160 440.3 128 427.7 96 430.3C64 433 32 451 16 460L0 469Z" fill="#aaaaef"></path></svg>