<svg id="visual" viewBox="0 0 900 600" width="900" height="600" xmlns="http://www.w3.org/2000/svg" xmlns:xlink="http://www.w3.org/1999/xlink" version="1.1"><rect x="0" y="0" width="900" height="600" fill="#fff"></rect><path d="M0 524L37.5 515.5C75 507 150 490 225 496.5C300 503 375 533 450 545.8C525 558.7 600 554.3 675 543.2C750 532 825 514 862.5 505L900 496L900 601L862.5 601C825 601 750 601 675 601C600 601 525 601 450 601C375 601 300 601 225 601C150 601 75 601 37.5 601L0 601Z" fill="#AAAAEF" stroke-linecap="round" stroke-linejoin="miter"></path></svg>