<svg id="visual" viewBox="0 0 900 600" width="900" height="600" xmlns="http://www.w3.org/2000/svg" xmlns:xlink="http://www.w3.org/1999/xlink" version="1.1"><rect x="0" y="0" width="900" height="600" fill="#FFFFFF"></rect><g transform="translate(467.7578478071055 272.47304065875164)"><path d="M33.7 -40.2C42.9 -32.4 49.1 -21.1 61.1 -3.4C73 14.3 90.6 38.4 89.6 62.6C88.6 86.8 68.9 111 46.8 111.7C24.7 112.4 0.2 89.6 -29.6 79.5C-59.5 69.5 -94.7 72.2 -112 57.4C-129.3 42.5 -128.7 10 -115.1 -12.3C-101.6 -34.5 -75.2 -46.3 -53.9 -52.1C-32.6 -57.8 -16.3 -57.4 -2 -55C12.2 -52.6 24.4 -48.1 33.7 -40.2" fill="#AAAAEF"></path></g></svg>